<svg width="42" height="36" viewBox="0 0 42 36" fill="none" xmlns="http://www.w3.org/2000/svg">
<g clip-path="url(#clip0_60_81)">
<path d="M16.882 20.2354V35.1735H0.0866699V23.3779C0.0866699 17.0001 1.01974 12.3717 2.87034 9.52337C5.31188 5.69984 9.16858 2.82058 14.4404 0.870117L18.266 5.87012C15.078 6.96919 12.7298 8.59457 11.2213 10.7618C9.71288 12.9289 8.87311 16.0868 8.70205 20.2354H16.882Z" fill="white"/>
<path d="M39.8511 20.2353V35.1734H23.0714V23.3777C23.0714 17 24.0044 12.3715 25.855 9.50774C28.2966 5.69969 32.1533 2.82044 37.4251 0.854492L41.2507 5.85449C38.0627 6.95356 35.7145 8.57895 34.206 10.7461C32.6976 12.9133 31.8578 16.0712 31.6867 20.2198H39.8667L39.8511 20.2353Z" fill="white"/>
</g>
<defs>
<clipPath id="clip0_60_81">
<rect width="41.1641" height="34.3034" fill="white" transform="translate(0.0866699 0.870117)"/>
</clipPath>
</defs>
</svg>