<svg width="79" height="79" viewBox="0 0 79 79" fill="none" xmlns="http://www.w3.org/2000/svg">
<rect width="79" height="79" rx="39.5" fill="#D3AD7F" fill-opacity="0.3"/>
<g clip-path="url(#clip0_62_141)">
<path d="M35.4099 31.1174C36.0932 29.944 36.6993 28.7557 37.4395 27.6573C39.5568 24.5178 42.2869 22.08 45.8437 20.6677C48.194 19.7353 50.6171 19.4158 53.0777 20.1719C56.4025 21.193 58.3822 23.5422 59.2987 26.8113C60.2265 30.1259 59.8274 33.3927 58.6301 36.5652C56.9222 41.0896 54.0806 44.7089 49.8541 47.1479C47.6789 48.4033 45.3388 49.1094 42.7963 48.965C42.4631 48.9456 42.4097 49.0844 42.3642 49.3686C41.9344 52.1204 40.9986 54.6629 39.1281 56.779C36.0614 60.2482 31.5927 61.01 27.5276 58.7734C24.5167 57.1167 22.4711 54.5753 21.0088 51.5279C19.4771 48.3362 18.7983 44.9556 18.9916 41.425C19.1633 38.2958 20.0002 35.3655 21.931 32.8321C23.4603 30.8252 25.4354 29.5062 27.962 29.1128C30.2748 28.7535 32.4023 29.3152 34.3967 30.4761C34.7515 30.6819 35.0903 30.915 35.4087 31.1163L35.4099 31.1174ZM26.1131 31.2209L25.9539 31.1811C25.7947 31.2687 25.6321 31.3494 25.4775 31.4438C23.7298 32.5035 22.537 34.0454 21.7115 35.8784C20.4334 38.7165 20.1128 41.6968 20.4823 44.768C20.8848 48.1088 22.0026 51.1754 24.0323 53.876C25.5071 55.8397 27.315 57.393 29.6767 58.2094C30.7308 58.5733 31.8121 58.7256 32.9492 58.5983C32.9879 58.3015 33.0197 58.0354 33.0584 57.7705C33.3654 55.6191 33.3097 53.4758 32.8924 51.3426C32.3363 48.5033 31.1049 45.9733 29.4686 43.5991C27.5117 40.7587 26.3951 37.5885 26.1245 34.1443C26.0483 33.1755 26.1131 32.1954 26.1131 31.2209ZM56.3593 23.963C56.29 24.0141 56.2422 24.0425 56.2024 24.0789C52.9731 27.0592 50.915 30.691 50.1259 35.0256C49.2276 39.9571 46.8693 44.0392 43.0305 47.2639C42.9373 47.3424 42.8304 47.4049 42.7292 47.4754L42.7917 47.5868C42.9691 47.5959 43.1476 47.6153 43.325 47.6141C45.3684 47.5925 47.2684 47.0308 49.0354 46.0325C52.9345 43.8277 55.5782 40.5336 57.2133 36.4105C58.3606 33.5178 58.7779 30.5341 58.0422 27.4595C57.7363 26.1825 57.2053 25.0068 56.3593 23.9652V23.963ZM37.269 56.7869C37.7545 56.2241 38.2423 55.7294 38.6494 55.1734C40.3118 52.9049 41.0259 50.301 41.1669 47.5402C41.3681 43.6059 40.4721 39.9184 38.4379 36.5345C37.0984 34.3081 35.3598 32.4717 33.0015 31.296C32.0885 30.8411 31.1276 30.5284 30.0713 30.4409C29.9928 32.3944 30.1384 34.291 30.5852 36.1638C31.197 38.7211 32.3864 40.9941 33.8555 43.1591C36.0398 46.377 37.1632 49.9588 37.2656 53.851C37.2906 54.7948 37.269 55.7397 37.269 56.7858V56.7869ZM42.2448 42.3483C42.3085 42.2801 42.4154 42.1914 42.4904 42.0811C43.1408 41.1203 43.8401 40.1867 44.42 39.1838C45.573 37.1894 46.1564 34.996 46.6009 32.7435C47.4231 28.5783 49.4243 25.0341 52.4739 22.0834C52.632 21.9299 52.8105 21.7991 52.9799 21.657L52.9163 21.5205C52.4057 21.4193 51.8997 21.2886 51.3846 21.2226C49.3834 20.9645 47.4879 21.3909 45.6913 22.238C41.4227 24.2495 38.5721 27.605 36.6868 31.8588C36.5867 32.0839 36.6845 32.1863 36.8255 32.3205C38.7051 34.1091 40.0878 36.2365 41.0202 38.6471C41.4864 39.8524 41.8377 41.1021 42.2459 42.3483H42.2448ZM28.6784 30.4068C28.4396 30.4409 28.2474 30.4648 28.0552 30.4966C27.9017 30.5216 27.7335 30.525 27.6027 30.5944C27.5083 30.6444 27.4094 30.7877 27.406 30.8923C27.3457 32.7821 27.4446 34.6583 27.8688 36.5117C28.4646 39.119 29.629 41.45 31.1344 43.648C33.4473 47.024 34.5946 50.7888 34.6162 54.8812C34.6219 56.0228 34.5047 57.1656 34.4433 58.314C34.5934 58.2628 34.7697 58.2105 34.9402 58.1446C35.1119 58.0786 35.2882 58.015 35.4428 57.9183C35.5349 57.8603 35.635 57.7466 35.6509 57.6454C35.9625 55.6578 36.0159 53.6656 35.7112 51.6723C35.2552 48.683 34.1568 45.9494 32.4216 43.4695C29.837 39.7751 28.601 35.6669 28.6784 31.1606C28.6829 30.923 28.6784 30.6853 28.6784 30.4068ZM55.3394 22.8987C55.0756 22.7088 54.7879 22.4848 54.4786 22.296C54.4104 22.2539 54.233 22.3017 54.1614 22.3676C52.1681 24.1961 50.5068 26.2735 49.3504 28.7387C48.5078 30.5364 48.0632 32.4421 47.6618 34.3729C46.9011 38.0354 45.2058 41.2283 42.6689 43.9766C42.5712 44.0824 42.4688 44.2393 42.4722 44.3701C42.4836 44.8317 42.5405 45.2911 42.5848 45.8107C42.7258 45.6947 42.835 45.6151 42.9339 45.523C46.0654 42.6042 48.003 39.0315 48.7659 34.8243C49.3766 31.4586 50.6899 28.4055 52.823 25.7288C53.5985 24.7555 54.4763 23.8652 55.3405 22.8987H55.3394Z" fill="#D3AD7F"/>
<path d="M27.7132 53.9966C27.977 54.1399 28.168 54.2229 28.3375 54.3377C29.0618 54.8312 29.7736 55.3429 30.5013 55.8307C30.9516 56.1331 31.096 56.4845 30.8731 56.8541C30.6537 57.2179 30.2409 57.3066 29.8031 57.0155C28.9799 56.4674 28.1726 55.8932 27.3709 55.3133C27.106 55.1223 26.9855 54.8198 27.156 54.5265C27.2766 54.3195 27.5119 54.1808 27.7132 53.9966Z" fill="#D3AD7F"/>
<path d="M26.8934 53.2369C26.7797 53.3802 26.6648 53.6588 26.4715 53.7338C26.2623 53.8145 25.8939 53.7952 25.7449 53.6576C25.3856 53.3267 25.0877 52.9185 24.8148 52.508C24.6363 52.2385 24.692 51.927 24.9387 51.695C25.1832 51.4653 25.53 51.3948 25.7495 51.6188C26.1486 52.0282 26.4692 52.5149 26.8183 52.9731C26.8502 53.0152 26.8502 53.08 26.8934 53.2369Z" fill="#D3AD7F"/>
<path d="M41.4423 29.3797C41.4047 29.4524 41.3331 29.6173 41.2387 29.7685C40.76 30.5338 40.2688 31.2922 39.7946 32.0609C39.5286 32.493 39.184 32.6408 38.8122 32.4452C38.4461 32.253 38.3233 31.8414 38.5757 31.4218C39.0931 30.5645 39.6377 29.7219 40.1903 28.8862C40.3757 28.6064 40.6565 28.4757 41.0033 28.6144C41.299 28.7315 41.4468 28.9498 41.4423 29.3797Z" fill="#D3AD7F"/>
<path d="M43.9165 26.6543C43.9029 27.2512 42.6453 28.3735 42.2268 28.2564C42.0131 28.1973 41.7652 28.0006 41.6833 27.8038C41.6094 27.6287 41.6697 27.3001 41.8004 27.1568C42.12 26.8043 42.4884 26.4826 42.8886 26.2267C43.0592 26.1176 43.3901 26.1323 43.5857 26.2233C43.763 26.3063 43.8574 26.569 43.9177 26.6543H43.9165Z" fill="#D3AD7F"/>
</g>
<defs>
<clipPath id="clip0_62_141">
<rect width="40.8494" height="40.29" fill="white" transform="translate(18.96 19.75)"/>
</clipPath>
</defs>
</svg>