<svg width="79" height="79" viewBox="0 0 79 79" fill="none" xmlns="http://www.w3.org/2000/svg">
<rect width="79" height="79" rx="39.5" fill="#D3AD7F" fill-opacity="0.3"/>
<g clip-path="url(#clip0_63_143)">
<path d="M25.9822 32.4988C25.5653 32.4988 25.2015 32.5108 24.8404 32.4961C24.1607 32.4683 23.7213 32.0448 23.712 31.3624C23.6947 29.9883 23.696 28.6129 23.712 27.2389C23.7199 26.5724 24.1302 26.1741 24.7966 26.121C24.8949 26.113 24.9958 26.1144 25.094 26.113C25.7932 26.1069 26.2552 25.7634 26.48 25.0828C26.9526 23.657 27.4253 22.2311 27.9006 20.8053C28.194 19.9278 28.4396 19.7538 29.3928 19.7538C35.736 19.7538 42.0793 19.7538 48.4226 19.7538C48.9696 19.7538 49.5152 19.7459 50.0622 19.7565C50.7698 19.7698 51.0791 19.9995 51.3048 20.6725C51.8611 22.332 52.428 23.9889 52.9563 25.6564C53.0758 26.0334 53.2484 26.1582 53.6215 26.1197C53.9003 26.0918 54.1844 26.1038 54.4645 26.125C55.1296 26.1741 55.5093 26.5299 55.5199 27.203C55.5425 28.6103 55.5438 30.0188 55.5173 31.4261C55.5053 32.0886 55.0659 32.4656 54.3941 32.5028C54.0211 32.5227 53.5219 32.4205 53.3108 32.6183C53.0918 32.8241 53.1449 33.3259 53.0878 33.7003C52.1359 39.8418 51.1827 45.9819 50.2348 52.1234C49.8869 54.3776 49.5537 56.6332 49.2099 58.8888C49.0798 59.7478 48.7279 60.0425 47.8411 60.0425C42.3594 60.0425 36.8765 60.0425 31.3948 60.0425C30.5013 60.0425 30.1867 59.7544 30.0513 58.8729C29.4061 54.675 28.7502 50.4785 28.1037 46.2806C27.5248 42.5235 26.954 38.7651 26.3791 35.008C26.2543 34.1915 26.1216 33.3763 25.9835 32.5015L25.9822 32.4988ZM51.0897 32.5307H28.1581C29.4618 41.0021 30.7602 49.439 32.0586 57.8825C32.2139 57.8945 32.3281 57.9104 32.4423 57.9104C37.211 57.9117 41.9797 57.9077 46.7485 57.9184C47.1096 57.9184 47.2516 57.8082 47.2636 57.4444C47.2742 57.1337 47.3565 56.8244 47.4043 56.5138C47.8836 53.3952 48.3615 50.2754 48.8408 47.1555C49.32 44.037 49.802 40.9171 50.2812 37.7986C50.5494 36.0528 50.8176 34.3057 51.0897 32.528V32.5307ZM50.8534 26.0918C50.3994 24.7257 49.9772 23.426 49.5218 22.1382C49.478 22.0161 49.2338 21.8913 49.0811 21.89C42.7763 21.878 36.4715 21.8807 30.1681 21.8727C29.8906 21.8727 29.7618 21.955 29.6769 22.2192C29.2932 23.4127 28.8883 24.6009 28.4953 25.7918C28.4674 25.8781 28.4754 25.975 28.4661 26.0918H50.8534ZM25.8866 30.3043H53.3706V28.2744H25.8866V30.3043Z" fill="#D3AD7F"/>
</g>
<defs>
<clipPath id="clip0_63_143">
<rect width="31.8372" height="40.29" fill="white" transform="translate(23.7 19.75)"/>
</clipPath>
</defs>
</svg>