<svg width="79" height="79" viewBox="0 0 79 79" fill="none" xmlns="http://www.w3.org/2000/svg">
<rect width="79" height="79" rx="39.5" fill="#D3AD7F" fill-opacity="0.3"/>
<g clip-path="url(#clip0_63_142)">
<path d="M19.75 40.6736C19.8887 39.9697 19.957 39.2427 20.1828 38.5683C20.5001 37.6185 20.9361 36.7077 21.3175 35.7789C21.369 35.6518 21.4551 35.5037 21.4288 35.386C21.0286 33.6011 21.4761 31.9296 22.1159 30.2928C22.367 29.6498 22.6874 29.031 23.0068 28.4164C23.26 27.9279 23.7013 27.7861 24.1194 28.0078C24.548 28.2357 24.6604 28.6938 24.3831 29.1897C23.695 30.421 23.2085 31.7226 22.9406 33.1105C22.4132 35.8388 24.4766 38.5788 27.2417 38.874C29.8178 39.1492 32.3875 39.4833 34.9593 39.7911C35.8692 39.9004 36.7779 40.016 37.6877 40.1147C39.1627 40.2744 40.2795 39.1776 40.1104 37.7036C39.8215 35.1812 39.5052 32.6619 39.1995 30.1415C39.0692 29.0636 38.9915 27.9752 38.794 26.9099C38.2697 24.0796 35.5739 22.3556 32.7741 23.0017C31.504 23.2948 30.2989 23.7508 29.1664 24.3958C28.8533 24.5744 28.5476 24.5986 28.2461 24.3832C27.9866 24.1983 27.8532 23.9252 27.9446 23.631C28.0118 23.4146 28.1642 23.1625 28.3512 23.0532C30.01 22.094 31.775 21.4185 33.7039 21.2914C34.2323 21.2567 34.7702 21.3754 35.3039 21.4132C35.4258 21.4216 35.5718 21.4269 35.6706 21.3702C37.1803 20.5087 38.794 19.9771 40.5243 19.8048C40.5737 19.7995 40.621 19.767 40.6682 19.748H42.7915C43.342 19.8521 43.8935 19.9477 44.4419 20.0611C45.7405 20.329 46.8247 20.9688 47.7229 21.9427C47.8353 22.0646 48.015 22.1623 48.1778 22.1928C53.2952 23.1604 57.0858 25.9812 59.6996 30.4399C60.1829 31.2646 60.144 32.104 59.582 32.8751C58.9968 33.6767 58.1805 33.9373 57.2202 33.7198C54.6862 33.1462 52.1543 33.2155 49.6266 33.7471C49.4921 33.7755 49.3293 33.9068 49.2736 34.0318C48.6086 35.5384 47.5065 36.5679 45.9684 37.1458C44.6353 37.6469 43.3094 38.1659 41.9752 38.6649C41.7503 38.749 41.6201 38.8593 41.5434 39.1009C41.1547 40.3364 40.3341 41.1601 39.0987 41.5488C38.8591 41.6244 38.7457 41.7515 38.6616 41.9785C38.1636 43.3127 37.6425 44.6385 37.1414 45.9728C36.5636 47.5119 35.5361 48.615 34.0296 49.28C33.9046 49.3357 33.7711 49.4975 33.7428 49.632C33.2112 52.1607 33.1418 54.6916 33.7144 57.2267C33.9308 58.1838 33.6745 59.0032 32.8729 59.5894C32.0713 60.1757 31.2161 60.1736 30.3693 59.6714C26.1218 57.1552 23.3409 53.5528 22.3071 48.6833C22.1968 48.1622 22.0046 47.7619 21.62 47.3869C20.4539 46.2522 20.0263 44.7793 19.8309 43.2161C19.8162 43.0753 19.7784 42.9366 19.75 42.7969V40.6726V40.6736ZM37.4608 22.1728C37.4923 22.2915 37.4923 22.3073 37.4986 22.3125C37.549 22.3535 37.5984 22.3955 37.652 22.4333C39.0293 23.3978 39.9318 24.6974 40.3005 26.3342C40.4665 27.0706 40.5254 27.8334 40.6178 28.5856C40.8742 30.6889 41.1221 32.7932 41.3732 34.8975C41.4593 35.6172 41.5476 36.3368 41.6432 37.1279C43.177 36.5133 44.7025 36.0195 46.1166 35.303C47.5433 34.5802 48.181 33.2575 48.0896 31.6522C47.9782 29.6918 47.7944 27.7357 47.682 25.7753C47.5737 23.9 46.3151 22.24 44.5071 21.7158C42.948 21.263 41.3606 21.1852 39.771 21.5267C38.9894 21.6948 38.2288 21.9543 37.4608 22.1718V22.1728ZM37.0952 41.636C36.0183 41.511 35.0056 41.3964 33.9939 41.2756C31.8507 41.0203 29.7106 40.743 27.5653 40.5129C26.0682 40.3532 24.6962 39.912 23.5615 38.8981C23.0898 38.4769 22.6885 37.9757 22.2409 37.4946C22.1968 37.5912 22.139 37.7047 22.0928 37.8213C21.2523 39.9288 21.1032 42.0867 21.6474 44.2877C22.1086 46.1514 23.7454 47.5382 25.6228 47.6726C27.5811 47.8134 29.5404 47.951 31.4987 48.0866C33.4286 48.221 34.9436 47.2577 35.6433 45.4528C35.9311 44.71 36.2158 43.9651 36.4995 43.2203C36.6939 42.7097 36.884 42.198 37.0962 41.6339L37.0952 41.636ZM49.7485 32.0903C52.3697 31.6186 54.9678 31.5661 57.5606 32.1691C57.838 32.2332 58.1101 32.2175 58.3023 31.9496C58.4988 31.6754 58.4452 31.4169 58.2845 31.1469C57.0017 28.9838 55.3523 27.1662 53.2206 25.812C51.9127 24.98 50.5028 24.379 49.0004 24.0103C49.4942 26.6851 49.4448 29.3872 49.7495 32.0914L49.7485 32.0903ZM24.0133 49.0037C24.0458 49.1361 24.0763 49.2737 24.1152 49.4093C25.2362 53.3038 27.6462 56.1813 31.0827 58.252C31.3705 58.4254 31.6468 58.5347 31.9515 58.3056C32.2593 58.0745 32.2068 57.7667 32.1406 57.4494C31.7929 55.8021 31.6269 54.139 31.7719 52.456C31.8507 51.5493 31.9547 50.6458 32.0461 49.7507C29.3849 49.4439 26.6828 49.5049 24.0143 49.0048L24.0133 49.0037Z" fill="#D3AD7F"/>
<path d="M25.9148 26.6837C25.4683 26.69 25.1101 26.3444 25.1069 25.9073C25.1048 25.4819 25.4799 25.1068 25.9054 25.1089C26.3298 25.111 26.6692 25.4482 26.6807 25.8779C26.6923 26.3349 26.3666 26.6774 25.9148 26.6837Z" fill="#D3AD7F"/>
</g>
<defs>
<clipPath id="clip0_63_142">
<rect width="40.2879" height="40.29" fill="white" transform="translate(19.75 19.75)"/>
</clipPath>
</defs>
</svg>